DataRate=2000.000000
DataType=double
version=3
OpenSimVersion=4.3-2021-08-27-4bc7ad9
endheader
time	f1_1	f1_2	f1_3	p1_1	p1_2	p1_3	m1_1	m1_2	m1_3	f2_1	f2_2	f2_3	p2_1	p2_2	p2_3	m2_1	m2_2	m2_3	f3_1	f3_2	f3_3	p3_1	p3_2	p3_3	m3_1	m3_2	m3_3	f4_1	f4_2	f4_3	p4_1	p4_2	p4_3	m4_1	m4_2	m4_3
4.9725	-0	0	0	-300	2252	0	0	0	0	-45.40032196044922	-90.08812713623047	749.56494140625	-300	1351	0	-179339.34375	-5476.267578125	-22344.7109375	110.2148873395389	100.0576043375338	1105.364013671875	-300	450.0000000000005	0	313619.2805149007	33634.22560436689	-20367.34765625	-0	0	0	305	450.0000000000006	0	0	0	0
4.973	-0	0	0	-300	2252	0	0	0	0	-44.12188339233398	-89.15264892578125	751.4794311523438	-300	1351	0	-179768.328125	-5641.03564453125	-21281.181640625	115.5153557301214	102.5394159768167	1107.423217773438	-300	450.0000000000005	0	314147.3742472403	34442.27639715874	-22265.810546875	-0	0	0	305	450.0000000000006	0	0	0	0
4.9735	-0	0	0	-300	2252	0	0	0	0	-43.66110610961914	-89.92525482177734	753.4799194335938	-300	1351	0	-180392.84375	-5492.970703125	-20843.267578125	120.9172493015652	104.5653789244687	1108.591918945312	-300	450.0000000000005	0	314590.3429859773	34957.60843809013	-24170.5	-0	0	0	305	450.0000000000006	0	0	0	0
4.974	-0	0	0	-300	2252	0	0	0	0	-42.79132843017578	-90.81644439697266	753.538818359375	-300	1351	0	-180894.484375	-5004.3720703125	-21450.505859375	125.7020240619796	105.474024658926	1110.44384765625	-300	450.0000000000005	0	314862.8117239718	35506.91703779512	-26003.646484375	-0	0	0	305	450.0000000000006	0	0	0	0
4.9745	-0	0	0	-300	2252	0	0	0	0	-41.57220077514648	-90.22238159179688	755.9518432617188	-300	1351	0	-181000.84375	-4729.4248046875	-21737.28515625	129.7065406451914	106.3136548734007	1111.506469726562	-300	450.0000000000005	0	315260.1242103191	36131.59282772867	-27527.62890625	-0	0	0	305	450.0000000000006	0	0	0	0
4.975000000000001	-0	0	0	-300	2252	0	0	0	0	-39.98152542114258	-88.93750762939453	758.8067016601562	-300	1351	0	-181162.296875	-4545.30419921875	-20963.57421875	133.529767541566	107.7931929208271	1110.58056640625	-300	450.0000000000005	0	315106.1241993653	36632.78032436289	-28881.07421875	-0	0	0	305	450.0000000000006	0	0	0	0
4.9755	-0	0	0	-300	2252	0	0	0	0	-38.12308502197266	-88.62523651123047	759.6900634765625	-300	1351	0	-181941.953125	-4335.98291015625	-19900.435546875	136.9443640529459	109.9087630638149	1110.529541015625	-300	450.0000000000005	0	314655.6241879791	37153.74906451689	-30247.404296875	-0	0	0	305	450.0000000000006	0	0	0	0
4.976	-0	0	0	-300	2252	0	0	0	0	-37.01514053344727	-89.29351043701172	761.9550170898438	-300	1351	0	-182549.40625	-4177.01904296875	-19822.287109375	140.0091223060572	112.0898849569692	1109.463012695312	-300	450.0000000000005	0	314300.1241808769	37478.7099942472	-31711.4296875	-0	0	0	305	450.0000000000006	0	0	0	0
4.9765	-0	0	0	-300	2252	0	0	0	0	-35.92270278930664	-89.35345458984375	765.6337890625	-300	1351	0	-182913.359375	-4101.69677734375	-20343.51171875	142.967282682044	113.2064774288484	1107.822998046875	-300	450.0000000000005	0	313802.8116807572	37484.18654587809	-32896.48828125	-0	0	0	305	450.0000000000006	0	0	0	0
4.977	-0	0	0	-300	2252	0	0	0	0	-34.28747177124023	-88.76676177978516	766.283447265625	-300	1351	0	-183272.5625	-3805.766845703125	-20123.88671875	144.8783239268477	113.89105541251	1105.203491210938	-300	450.0000000000005	0	312947.4679235134	37815.62402718396	-33738.5546875	-0	0	0	305	450.0000000000006	0	0	0	0
4.9775	-0	0	0	-300	2252	0	0	0	0	-32.55539321899414	-88.03902435302734	767.9580688476562	-300	1351	0	-183331.71875	-3697.266357421875	-19102.18359375	146.3243077910786	114.919978478781	1101.398193359375	-300	450.0000000000005	0	311559.249169078	38018.56540309347	-34425.94140625	-0	0	0	305	450.0000000000006	0	0	0	0
4.978	-0	0	0	-300	2252	0	0	0	0	-30.80855369567871	-88.01592254638672	769.5791015625	-300	1351	0	-184167.03125	-3585.322021484375	-18248.513671875	147.2288792917563	116.4081681958166	1096.946655273438	-300	450.0000000000005	0	310205.9991707184	37943.51068601726	-35117.34765625	-0	0	0	305	450.0000000000006	0	0	0	0
4.9785	-0	0	0	-300	2252	0	0	0	0	-29.38799285888672	-88.70664978027344	770.6083374023438	-300	1351	0	-185062.71875	-3154.2578125	-18345.509765625	147.787930765753	118.2234910840117	1092.669067382812	-300	450.0000000000005	0	308939.7179234691	37817.6512833418	-35709.125	-0	0	0	305	450.0000000000006	0	0	0	0
4.979	-0	0	0	-300	2252	0	0	0	0	-27.70808029174805	-88.41777038574219	772.580322265625	-300	1351	0	-185450.921875	-2837.069091796875	-18759.27734375	148.1470005632414	119.4465288115859	1087.83203125	-300	450.0000000000005	0	307696.7804276908	37624.48719367654	-36088.78515625	-0	0	0	305	450.0000000000006	0	0	0	0
4.9795	-0	0	0	-300	2252	0	0	0	0	-26.1243896484375	-87.60804748535156	775.5226440429688	-300	1351	0	-185730.203125	-2466.314208984375	-18266.583984375	147.7564518491814	119.812808405101	1082.857543945312	-300	450.0000000000005	0	305980.2804352031	37280.76840616125	-36120.8515625	-0	0	0	305	450.0000000000006	0	0	0	0
4.98	-0	0	0	-300	2252	0	0	0	0	-23.88771629333496	-86.98418426513672	778.2308349609375	-300	1351	0	-186553.59375	-2045.15576171875	-16991.35546875	146.9004032622047	119.9497255006493	1077.899536132812	-300	450.0000000000005	0	303987.6241934837	36901.88945636036	-35994.19140625	-0	0	0	305	450.0000000000006	0	0	0	0
4.9805	-0	0	0	-300	2252	0	0	0	0	-21.56781387329102	-87.08744049072266	781.3787231445312	-300	1351	0	-187684.359375	-1825.292358398438	-16239.7021484375	145.3390323874957	121.0981477077354	1071.929443359375	-300	450.0000000000005	0	302271.1867033882	36448.70973134643	-35884.5078125	-0	0	0	305	450.0000000000006	0	0	0	0
4.981	-0	0	0	-300	2252	0	0	0	0	-19.8504753112793	-87.24394226074219	784.8518676757812	-300	1351	0	-188470.09375	-1315.945434570312	-16436.23828125	143.3964359201031	122.5552399504349	1064.68505859375	-300	450.0000000000005	0	300194.5617127591	36019.94796721035	-35734.44921875	-0	0	0	305	450.0000000000006	0	0	0	0
4.9815	-0	0	0	-300	2252	0	0	0	0	-17.93300247192383	-86.44261932373047	787.207275390625	-300	1351	0	-189030.625	-787.24267578125	-16586.64453125	141.2897006791268	123.0806915645469	1057.615356445312	-300	450.0000000000005	0	298145.7492239676	35507.10807868213	-35290.83203125	-0	0	0	305	450.0000000000006	0	0	0	0
4.982	-0	0	0	-300	2252	0	0	0	0	-15.42839336395264	-86.12936401367188	790.6187133789062	-300	1351	0	-189541.40625	-362.896728515625	-15651.2578125	138.6419498195199	123.3147155545301	1051.715087890625	-300	450.0000000000005	0	296075.124238533	34840.67443967718	-34525.125	-0	0	0	305	450.0000000000006	0	0	0	0
4.9825	-0	0	0	-300	2252	0	0	0	0	-12.66309356689453	-86.64158630371094	794.1812744140625	-300	1351	0	-190476.265625	16.93815422058105	-14283.798828125	135.4220859191365	123.7165251765405	1044.209350585938	-300	450.0000000000005	0	293824.5929989029	34366.20173424026	-33822.671875	-0	0	0	305	450.0000000000006	0	0	0	0
4.983000000000001	-0	0	0	-300	2252	0	0	0	0	-9.897793769836426	-87.36924743652344	796.183837890625	-300	1351	0	-191379.703125	461.4155883789062	-13605.33203125	132.0601779462565	124.3523130669309	1035.7080078125	-300	450.0000000000005	0	291675.2180076322	33966.79543726418	-33129.04296875	-0	0	0	305	450.0000000000006	0	0	0	0
4.9835	-0	0	0	-300	2252	0	0	0	0	-7.340253829956055	-87.80810546875	798.8302612304688	-300	1351	0	-192405.484375	1118.687744140625	-13665.36328125	128.729382634433	125.4384183408137	1027.486328125	-300	450.0000000000005	0	289224.5617724372	33289.39694620339	-32224.7578125	-0	0	0	305	450.0000000000006	0	0	0	0
4.984	-0	0	0	-300	2252	0	0	0	0	-4.620171070098877	-87.57126617431641	802.9785766601562	-300	1351	0	-193124.21875	1667.647338867188	-13241.9228515625	125.2123995912884	125.9379681296703	1019.682983398438	-300	450.0000000000005	0	286655.5305452189	32247.02774943044	-31246.244140625	-0	0	0	305	450.0000000000006	0	0	0	0
4.9845	-0	0	0	-300	2252	0	0	0	0	-1.520688772201538	-87.34779357910156	806.5416259765625	-300	1351	0	-193802.40625	2071.9033203125	-11658.537109375	121.3318148783519	125.7613399320644	1011.200256347656	-300	450.0000000000005	0	284306.0618126098	31451.31285433116	-30163.951171875	-0	0	0	305	450.0000000000006	0	0	0	0
4.985	-0	0	0	-300	2252	0	0	0	0	2.157889127731323	-87.60714721679688	810.8056640625	-300	1351	0	-194605.71875	2578.71923828125	-10257.74609375	117.2027179015911	125.3906123027577	1002.157592773438	-300	450.0000000000005	0	281925.968075619	30856.08428668756	-29088.734375	-0	0	0	305	450.0000000000006	0	0	0	0
4.9855	-0	0	0	-300	2252	0	0	0	0	5.860569953918457	-88.00090026855469	815.4863891601562	-300	1351	0	-195814.28125	3079.435546875	-9746.853515625	113.1311084097396	125.1518274237308	993.4295654296875	-300	450.0000000000005	0	279355.2493430857	30056.90063675273	-28025.58984375	-0	0	0	305	450.0000000000006	0	0	0	0
4.986	-0	0	0	-300	2252	0	0	0	0	9.287591934204102	-87.78697204589844	818.4912719726562	-300	1351	0	-196961.03125	3592.32861328125	-9609.189453125	109.0420047035874	125.491404055552	985.0850219726562	-300	450.0000000000005	0	276582.6868629504	29147.99627928145	-26928.03515625	-0	0	0	305	450.0000000000006	0	0	0	0
4.9865	-0	0	0	-300	2252	0	0	0	0	12.98964691162109	-87.26670074462891	821.227294921875	-300	1351	0	-197572.59375	4344.29931640625	-8669.201171875	104.9694491576255	125.6730369621489	976.2860107421875	-300	450.0000000000005	0	273789.9993771249	28499.44543699533	-25694.052734375	-0	0	0	305	450.0000000000006	0	0	0	0
4.987	-0	0	0	-300	2252	0	0	0	0	16.70757102966309	-87.13228607177734	823.9950561523438	-300	1351	0	-198194.46875	5105.88818359375	-6896.93359375	101.1232730214508	125.1566413092404	967.0497436523438	-300	450.0000000000005	0	271229.3431454945	27658.94928728041	-24506.0625	-0	0	0	305	450.0000000000006	0	0	0	0
4.9875	-0	0	0	-300	2252	0	0	0	0	20.53529357910156	-87.32514953613281	827.0838012695312	-300	1351	0	-199066	5659.4248046875	-5698.109375	97.10529055591219	124.361810899159	957.78076171875	-300	450.0000000000005	0	268838.5931676056	26647.26368815391	-23432.65625	-0	0	0	305	450.0000000000006	0	0	0	0
4.988	-0	0	0	-300	2252	0	0	0	0	24.08223533630371	-87.64437866210938	830.2042846679688	-300	1351	0	-200186.40625	6155.56591796875	-5416.3271484375	93.28611485518975	123.4699422243797	949.697021484375	-300	450.0000000000005	0	266328.0306850044	25851.19136765882	-22381.5703125	-0	0	0	305	450.0000000000006	0	0	0	0
4.9885	-0	0	0	-300	2252	0	0	0	0	27.44926261901855	-87.22301483154297	832.823974609375	-300	1351	0	-200866.0625	6868.14501953125	-5108.890625	89.77795141048985	123.1291370939954	941.1803588867188	-300	450.0000000000005	0	263547.4369531531	25020.80263501202	-21321.791015625	-0	0	0	305	450.0000000000006	0	0	0	0
4.989	-0	0	0	-300	2252	0	0	0	0	30.56491088867188	-86.81301879882812	834.8851318359375	-300	1351	0	-201532.78125	7606.58935546875	-3935.046630859375	85.98621863232478	122.6752109246986	932.3636474609375	-300	450.0000000000005	0	260865.2963441852	24287.26156076698	-20221.724609375	-0	0	0	305	450.0000000000006	0	0	0	0
4.9895	-0	0	0	-300	2252	0	0	0	0	33.78264236450195	-86.96854400634766	837.8834228515625	-300	1351	0	-202133.625	8205.5869140625	-2416.02099609375	82.43295022623933	121.4612597361997	923.9503784179688	-300	450.0000000000005	0	258422.233861831	23479.88260112215	-19252.333984375	-0	0	0	305	450.0000000000006	0	0	0	0
4.99	-0	0	0	-300	2252	0	0	0	0	37.41721343994141	-87.7542724609375	838.8925170898438	-300	1351	0	-202634.625	8791.41015625	-1595.2373046875	79.33702587226222	120.3876588994931	915.0305786132812	-300	450.0000000000005	0	256082.3588778816	22745.48997185756	-18276.22265625	-0	0	0	305	450.0000000000006	0	0	0	0
4.9905	-0	0	0	-300	2252	0	0	0	0	40.59312438964844	-88.39458465576172	840.9136962890625	-300	1351	0	-203251.265625	9154.0478515625	-1452.8935546875	76.5158970528958	119.2049729857846	907.1033325195312	-300	450.0000000000005	0	253585.7182667775	22109.68913604175	-17353.244140625	-0	0	0	305	450.0000000000006	0	0	0	0
4.991000000000001	-0	0	0	-300	2252	0	0	0	0	43.87710189819336	-87.93645477294922	843.7140502929688	-300	1351	0	-203792.75	9654.9296875	-1004.889221191406	73.36790207999697	118.1883789838775	899.1627197265625	-300	450.0000000000005	0	250985.6714063004	21445.19689171592	-16534.123046875	-0	0	0	305	450.0000000000006	0	0	0	0
